<svg width="298" height="157" viewBox="0 0 298 157" fill="none" xmlns="http://www.w3.org/2000/svg">
<g clip-path="url(#clip0_7_168)">
<path d="M194.833 48.5379H200.234V15.9299H194.833V48.5379ZM183.831 48.5379H189.237V15.9299H183.836L183.831 48.5379ZM172.829 48.5379H178.23V24.9172H172.832L172.829 48.5379ZM172.629 21.322H178.427V16.1839H172.627L172.629 21.322ZM151.376 35.0551C151.875 31.4091 154.173 28.8629 157.527 28.8629C161.128 28.8629 163.178 31.6097 163.529 35.0551H151.376ZM158.127 49.037C159.972 49.0994 161.805 48.7299 163.481 47.9581C165.157 47.1863 166.629 46.0336 167.779 44.5922L164.578 41.7984C163.769 42.6892 162.781 43.3988 161.677 43.8804C160.574 44.362 159.381 44.6046 158.177 44.5922C156.491 44.6497 154.847 44.0609 153.583 42.9465C152.318 41.8322 151.528 40.2768 151.376 38.5994H168.729C168.778 38.0495 168.829 37.5505 168.829 37.0514C168.829 30.2598 165.029 24.3673 157.527 24.3673C150.777 24.4169 146.025 29.955 146.025 36.7022V36.8025C145.956 38.4148 146.221 40.0241 146.803 41.5297C147.384 43.0353 148.271 44.405 149.406 45.5531C150.542 46.7013 151.903 47.6033 153.403 48.2027C154.904 48.8021 156.512 49.0861 158.127 49.037ZM114.37 48.4871H119.771V26.2672L137.024 48.5392H141.625V17.2278H136.224V38.8509L119.47 17.2278H114.369L114.37 48.4871ZM102.415 29.9106C106.916 29.5613 109.316 27.4634 109.316 22.5196V17.2278H103.368V23.3704H105.718C105.918 25.7173 104.618 27.0659 101.867 27.5612L102.415 29.9106Z" fill="url(#paint0_linear_7_168)"/>
<path d="M276.797 114.005H282.198V100.671C282.198 97.025 284.398 94.8293 287.549 94.8293C290.75 94.8293 292.599 96.9272 292.599 100.572V114.005H298V98.9236C298 93.4807 294.899 89.8855 289.599 89.8855C288.119 89.8864 286.663 90.2626 285.369 90.9787C284.074 91.6948 282.983 92.7274 282.197 93.9797V90.3846H276.796L276.797 114.005ZM260.646 110.56C258.045 110.56 256.044 109.262 256.044 107.014V106.914C256.044 104.467 258.095 102.97 261.596 102.97C263.422 102.956 265.236 103.277 266.946 103.918V105.516C266.946 108.512 264.246 110.56 260.644 110.56M259.144 114.504C260.606 114.557 262.061 114.274 263.396 113.677C264.732 113.08 265.912 112.184 266.846 111.059V114.005H272.097V100.023C272.19 98.6989 272.012 97.3692 271.574 96.1157C271.135 94.8622 270.446 93.7111 269.547 92.7327C267.893 91.0348 265.246 90.0862 261.695 90.0862C258.622 90.0347 255.577 90.6836 252.793 91.9834L254.242 96.2275C256.361 95.2551 258.663 94.7442 260.994 94.729C264.794 94.729 266.844 96.5272 266.844 99.8722V100.472C264.797 99.7924 262.651 99.4552 260.493 99.4735C254.742 99.4735 250.741 101.97 250.741 107.064V107.164C250.791 111.958 254.742 114.504 259.142 114.504M226.387 114.005H231.788V100.722C231.788 97.0758 233.988 94.8801 237.089 94.8801C240.29 94.8801 242.139 96.9781 242.139 100.623V114.056H247.538V98.9744C247.538 93.5315 244.437 89.9363 239.136 89.9363C237.656 89.9371 236.201 90.3132 234.906 91.0293C233.612 91.7454 232.52 92.7781 231.735 94.0306V90.4354H226.284L226.387 114.005ZM200.433 114.005H205.834V100.722C205.834 97.0758 208.034 94.8801 211.135 94.8801C214.336 94.8801 216.186 96.9781 216.186 100.623V114.056H221.594V98.9744C221.594 93.5315 218.493 89.9363 213.192 89.9363C211.712 89.9371 210.257 90.3132 208.962 91.0293C207.668 91.7454 206.576 92.7781 205.791 94.0306V90.4354H200.34L200.433 114.005ZM179.231 100.572C179.731 96.926 182.029 94.3798 185.336 94.3798C188.936 94.3798 190.986 97.1266 191.337 100.572H179.231ZM185.982 114.554C187.826 114.616 189.66 114.247 191.335 113.475C193.011 112.703 194.483 111.551 195.633 110.109L192.432 107.315C191.623 108.206 190.635 108.916 189.532 109.397C188.428 109.879 187.235 110.121 186.031 110.109C184.345 110.167 182.702 109.578 181.437 108.463C180.172 107.349 179.382 105.794 179.23 104.116H196.583C196.633 103.566 196.684 103.067 196.684 102.618C196.684 95.8262 192.883 89.9337 185.381 89.9337C178.631 89.9337 173.83 95.477 173.83 102.218V102.318C173.771 103.932 174.045 105.541 174.633 107.045C175.222 108.549 176.113 109.917 177.252 111.064C178.391 112.21 179.753 113.112 181.255 113.712C182.756 114.312 184.365 114.598 185.982 114.553M159.275 114.003H164.676V105.014C164.676 98.7725 167.982 95.6764 172.727 95.6764H173.027V89.9337C168.876 89.7344 166.127 92.1803 164.676 95.6764V90.3833H159.277L159.275 114.003Z" fill="url(#paint1_linear_7_168)"/>
<path d="M141.324 104.666C148.025 100.771 154.176 94.329 154.176 82.2444V81.9447C154.373 75.8163 152.207 69.8462 148.125 65.2654C142.974 59.5228 134.873 56.3759 124.571 56.3759H101.868C102.086 54.4191 102.203 52.4523 102.218 50.4835V50.1838C102.217 22.7216 81.2658 0 51.2585 0C21.2512 0 0 23.02 0 50.486V50.7857C0 78.2505 20.9536 100.971 50.9584 100.971C63.046 101.123 74.8015 97.0211 84.1641 89.3852V156.999H125.821C145.874 156.999 159.127 147.361 159.127 129.384V129.084C159.177 115.453 151.875 108.661 141.324 104.666ZM138.368 84.8414V85.1411C138.368 94.329 131.567 98.7738 121.365 98.7738H99.7674V72.0583H122.521C132.723 72.005 138.368 76.9018 138.368 84.8414ZM51.2521 85.0954C31.8552 85.0852 18.0031 69.4651 18.0031 50.486V50.1863C18.0031 31.211 31.555 15.7306 50.9584 15.7306C70.3617 15.7306 84.2137 31.5095 84.2137 50.486V50.7857C84.2137 69.7115 70.6618 85.0852 51.2585 85.0852L51.2521 85.0954ZM143.367 127.541C143.367 136.58 136.816 141.324 126.014 141.324H99.7674V113.704H124.872C137.375 113.704 143.375 118.748 143.375 127.237L143.367 127.541Z" fill="url(#paint2_linear_7_168)"/>
<path d="M87.2648 81.3961C86.8818 81.4331 86.4953 81.3916 86.1288 81.2744C85.7624 81.1571 85.4238 80.9665 85.1336 80.7142C84.8434 80.4619 84.6078 80.1532 84.4411 79.8069C84.2745 79.4606 84.1802 79.084 84.1642 78.7001V78.6505C84.2054 77.9514 84.4635 77.2823 84.9026 76.7362C85.3417 76.1901 85.9402 75.7939 86.6149 75.6027L90.7659 79.7935C89.8528 80.7624 88.596 81.3358 87.2648 81.3911M87.7646 72.5523C87.3532 72.2165 87.0164 71.7989 86.7756 71.3259C86.5347 70.853 86.3951 70.3352 86.3656 69.8055V69.756C86.3513 69.4762 86.3933 69.1964 86.4894 68.9333C86.5854 68.6701 86.7335 68.4288 86.9247 68.2239C87.1159 68.019 87.3464 67.8545 87.6026 67.7403C87.8587 67.6261 88.1353 67.5644 88.4157 67.559H88.6154C89.1455 67.5341 89.664 67.7196 90.0576 68.0751C90.4512 68.4305 90.688 68.9271 90.7163 69.4563V69.7103C90.6667 71.0081 89.6659 71.9072 87.7658 72.5562M95.1166 84.1913L97.5673 82.4438L94.6168 79.4976C95.563 78.1709 96.3992 76.7693 97.1171 75.3068L94.6664 74.009C94.0896 75.2393 93.4209 76.4245 92.666 77.5546L89.4649 74.3087C91.9156 73.36 93.5651 71.9123 93.5651 69.5147V69.4652C93.5532 68.8397 93.4136 68.2233 93.1548 67.6536C92.8959 67.084 92.5233 66.5731 92.0598 66.1524C91.5962 65.7316 91.0515 65.4097 90.459 65.2066C89.8665 65.0034 89.2387 64.9232 88.6141 64.9709C85.3075 64.9709 83.3134 67.1183 83.3134 69.615V69.6645C83.3599 71.0887 83.909 72.4507 84.8637 73.5099C82.3138 74.6084 80.9136 76.3037 80.9136 78.7039V78.7534C80.9136 81.9498 83.5143 84.0465 86.9646 84.0465C89.0878 84.0065 91.1127 83.1462 92.6138 81.6463L95.1166 84.1913Z" fill="white"/>
</g>
<defs>
<linearGradient id="paint0_linear_7_168" x1="108.163" y1="420.614" x2="206.53" y2="420.614" gradientUnits="userSpaceOnUse">
<stop stop-color="#E4101B"/>
<stop offset="0.64" stop-color="#9F1D1B"/>
<stop offset="1" stop-color="#9F1D1B"/>
</linearGradient>
<linearGradient id="paint1_linear_7_168" x1="165.517" y1="490.388" x2="304.243" y2="490.388" gradientUnits="userSpaceOnUse">
<stop stop-color="#E4101B"/>
<stop offset="0.64" stop-color="#9F1D1B"/>
<stop offset="1" stop-color="#9F1D1B"/>
</linearGradient>
<linearGradient id="paint2_linear_7_168" x1="6.36509" y1="466.6" x2="165.492" y2="466.6" gradientUnits="userSpaceOnUse">
<stop stop-color="#9F1D1B"/>
<stop offset="0.11" stop-color="#A91C1B"/>
<stop offset="0.3" stop-color="#C4181B"/>
<stop offset="0.41" stop-color="#D7151B"/>
<stop offset="0.61" stop-color="#DF121B"/>
<stop offset="0.67" stop-color="#D0151B"/>
<stop offset="0.8" stop-color="#B5191B"/>
<stop offset="0.91" stop-color="#A51C1B"/>
<stop offset="1" stop-color="#9F1D1B"/>
</linearGradient>
<clipPath id="clip0_7_168">
<rect width="298" height="157" fill="white"/>
</clipPath>
</defs>
</svg>
