<svg width="1024" height="313" viewBox="0 0 1024 313" fill="none" xmlns="http://www.w3.org/2000/svg">
<g opacity="0.2">
<path opacity="0.57" d="M-421 49.565C-421 49.565 -339.733 -130.262 -214.225 195.138C-154.484 350.028 21.7213 251.808 21.7213 251.808C21.7213 251.808 206.248 132.974 313.891 242.266C313.891 242.266 468.95 297.348 614.16 242.266C759.369 187.184 824.311 121.126 824.311 121.126C824.311 121.126 942.157 16.532 999.072 36.105C1055.99 55.678 1124.58 121.126 1124.58 121.126C1124.58 121.126 1220.89 247.126 1239.87 343.768C1258.85 440.41 -421 376.934 -421 376.934V49.565Z" fill="#A91C1B"/>
<path opacity="0.72" d="M1381 49.565C1381 49.565 1306.35 -130.261 1191.05 195.139C1136.17 350.029 974.305 251.809 974.305 251.809C974.305 251.809 804.794 132.975 705.911 242.267C705.911 242.267 563.468 297.349 430.075 242.267C296.682 187.185 237.024 121.127 237.024 121.127C237.024 121.127 141 28.9999 76.484 36.106C-6.5 48.4999 -31.495 127.197 -31.495 127.197C-31.495 127.197 -127.292 247.127 -144.72 343.768C-162.149 440.409 1381 376.934 1381 376.934V49.565Z" fill="#9F1D1B"/>
</g>
</svg>
